<svg xmlns="http://www.w3.org/2000/svg" width="34.03" height="28" viewBox="0 0 34.03 28">
  <metadata><?xpacket begin="﻿" id="W5M0MpCehiHzreSzNTczkc9d"?>
<x:xmpmeta xmlns:x="adobe:ns:meta/" x:xmptk="Adobe XMP Core 5.6-c138 79.159824, 2016/09/14-01:09:01        ">
   <rdf:RDF xmlns:rdf="http://www.w3.org/1999/02/22-rdf-syntax-ns#">
      <rdf:Description rdf:about=""/>
   </rdf:RDF>
</x:xmpmeta>
                                                                                                    
                                                                                                    
                                                                                                    
                                                                                                    
                                                                                                    
                                                                                                    
                                                                                                    
                                                                                                    
                                                                                                    
                                                                                                    
                                                                                                    
                                                                                                    
                                                                                                    
                                                                                                    
                                                                                                    
                                                                                                    
                                                                                                    
                                                                                                    
                                                                                                    
                                                                                                    
                           
<?xpacket end="w"?></metadata>
<defs>
    <style>
      .cls-1 {
        fill-rule: evenodd;
      }
    </style>
  </defs>
  <path class="cls-1" d="M1443.93,327c-0.1,0-.19,0-0.28-0.011a3.732,3.732,0,0,1-3.31-2.628c-1.62-5.424-7.76-10.014-7.83-10.059a3.641,3.641,0,0,1-.78-5.14,3.783,3.783,0,0,1,5.23-.769,35.892,35.892,0,0,1,4.34,3.9,31.814,31.814,0,0,1,2.71,3.219c0.55-.884,1.15-1.823,1.81-2.787,4.5-6.617,9.14-11.109,13.8-13.348a3.767,3.767,0,0,1,5,1.689,3.641,3.641,0,0,1-1.72,4.915c-3.39,1.628-7.13,5.343-10.81,10.742a69.4,69.4,0,0,0-4.78,8.159A3.729,3.729,0,0,1,1443.93,327Z" transform="translate(-1430.97 -299)"/>
</svg>
